Killzone 3 Trailer 1 Justice [2011 Jan] HD


General

Format                           : Flash Video

File size                        : 56.4 MiB

Duration                         : 1mn 46s

Overall bit rate                 : 4 454 Kbps


Video

Format                           : VP6

Duration                         : 1mn 46s

Bit rate                         : 4 096 Kbps

Width                            : 1 280 pixels

Height                           : 720 pixels

Display aspect ratio             : 16:9

Frame rate mode                  : Constant

Frame rate                       : 25.000 fps

Bit depth                        : 8 bits

Bits/(Pixel*Frame)               : 0.178

Stream size                      : 51.9 MiB (92%)

Audio

Format                           : MPEG Audio

Format profile                   : Layer 3

Duration                         : 1mn 46s

Bit rate mode                    : Constant

Bit rate                         : 128 Kbps

Channel(s)                       : 2 channels

Sampling rate                    : 44.1 KHz

Compression mode                 : Lossy

Stream size                      : 1.62 MiB (3%)

Home link
http[Colon]//www[Dot]killzone[Dot]com[Slash]kz3[Slash]home[Dot]html
